<?xml version="1.0" standalone="no"?>
<!DOCTYPE svg PUBLIC "-//W3C//DTD SVG 20010904//EN"
 "http://www.w3.org/TR/2001/REC-SVG-20010904/DTD/svg10.dtd">
<svg version="1.0" xmlns="http://www.w3.org/2000/svg"
 width="1125.000000pt" height="1125.000000pt" viewBox="0 0 1125.000000 1125.000000"
 preserveAspectRatio="xMidYMid meet">

<g transform="translate(0.000000,1125.000000) scale(0.100000,-0.100000)"
fill="#000000" stroke="none">
<path d="M3650 9160 c-52 -5 -113 -14 -135 -20 -22 -6 -56 -16 -75 -22 -47
-13 -198 -87 -236 -115 -17 -13 -34 -23 -38 -23 -12 0 -104 -102 -121 -135 -6
-11 -17 -46 -25 -78 -11 -46 -11 -65 -2 -91 7 -18 12 -39 12 -47 0 -24 52 -75
85 -85 17 -5 86 -9 155 -9 102 0 133 -4 167 -20 40 -18 46 -26 82 -105 17 -37
8 -489 -13 -665 -9 -77 -21 -178 -26 -225 -4 -47 -16 -139 -25 -205 -9 -66
-20 -156 -25 -200 -27 -241 -35 -263 -98 -280 -12 -3 -47 -17 -77 -30 -29 -14
-59 -25 -64 -25 -6 0 -11 -4 -11 -10 0 -5 -9 -10 -20 -10 -11 0 -43 -11 -72
-24 -29 -13 -100 -42 -158 -65 -58 -23 -114 -46 -125 -50 -21 -9 -84 -36 -125
-53 -14 -5 -38 -16 -55 -23 -69 -30 -214 -85 -223 -85 -6 0 -25 -8 -44 -17
-61 -30 -68 -33 -85 -33 -10 0 -27 -7 -37 -15 -11 -8 -29 -15 -41 -15 -12 0
-25 -4 -30 -9 -6 -5 -37 -17 -70 -27 -33 -10 -71 -24 -85 -31 -14 -7 -34 -13
-45 -13 -12 0 -25 -4 -30 -8 -9 -8 -39 -18 -262 -87 -45 -14 -93 -25 -107 -25
-14 0 -27 -4 -30 -9 -3 -5 -23 -12 -43 -15 -21 -4 -51 -11 -68 -16 -16 -5 -70
-17 -120 -26 -119 -21 -166 -35 -162 -48 5 -16 80 -65 100 -66 9 0 17 -4 17
-10 0 -5 10 -10 23 -10 12 0 31 -6 42 -14 11 -7 38 -16 60 -20 154 -23 208
-29 270 -30 105 0 362 32 420 52 17 5 57 15 90 22 33 6 80 18 105 26 25 8 53
14 63 14 9 0 25 4 35 9 9 5 44 16 77 26 33 9 69 21 80 25 11 5 45 15 75 24
110 32 160 50 160 58 0 4 11 8 24 8 13 0 37 7 52 15 16 8 37 15 47 15 9 0 17
5 17 10 0 6 7 10 16 10 24 0 114 33 114 42 0 5 9 8 19 8 11 0 41 11 68 24 26
13 66 31 88 40 22 9 48 21 57 26 10 6 22 10 28 10 13 0 13 -67 0 -75 -5 -3
-10 -19 -10 -35 0 -16 -4 -32 -10 -35 -5 -3 -10 -14 -10 -23 0 -9 -7 -30 -15
-46 -8 -15 -15 -35 -15 -42 0 -8 -4 -22 -10 -32 -5 -9 -16 -35 -25 -57 -21
-50 -45 -105 -56 -127 -5 -10 -9 -27 -9 -38 0 -11 -4 -20 -8 -20 -9 0 -42 -70
-42 -88 0 -7 -4 -12 -8 -12 -9 0 -42 -70 -42 -88 0 -7 -4 -12 -9 -12 -5 0 -13
-10 -17 -22 -4 -13 -10 -25 -14 -28 -3 -3 -18 -27 -32 -55 -38 -76 -62 -118
-75 -133 -7 -7 -13 -20 -13 -28 0 -8 -4 -14 -10 -14 -5 0 -10 -5 -10 -11 0 -6
-11 -25 -25 -43 -14 -18 -25 -40 -25 -49 0 -10 -4 -17 -8 -17 -4 0 -24 -25
-43 -55 -18 -30 -37 -55 -41 -55 -5 0 -8 -5 -8 -11 0 -12 -61 -102 -72 -107
-5 -2 -8 -8 -8 -14 0 -5 -6 -16 -12 -23 -27 -30 -38 -44 -38 -50 0 -3 -11 -18
-25 -33 -14 -15 -31 -39 -38 -54 -6 -16 -18 -28 -24 -28 -7 0 -13 -7 -13 -15
0 -8 -3 -15 -8 -15 -4 0 -16 -16 -26 -35 -11 -19 -22 -35 -26 -35 -4 0 -22
-22 -41 -50 -19 -27 -37 -50 -41 -50 -5 0 -8 -5 -8 -10 0 -6 -15 -25 -33 -43
-18 -17 -38 -41 -44 -52 -19 -34 -372 -405 -385 -405 -2 0 -33 -27 -69 -60
-35 -33 -67 -60 -70 -60 -3 0 -15 -8 -27 -17 -11 -10 -34 -29 -51 -43 -17 -14
-41 -33 -53 -43 -12 -10 -39 -28 -60 -39 -21 -12 -38 -25 -38 -30 0 -4 -6 -8
-14 -8 -8 0 -16 -3 -18 -7 -1 -5 -21 -17 -42 -28 -43 -22 -86 -60 -86 -76 0
-5 15 -16 33 -24 27 -11 43 -11 102 0 81 16 145 37 145 47 0 5 8 8 19 8 10 0
24 7 31 15 7 8 21 15 31 15 11 0 19 5 19 10 0 6 5 10 11 10 14 0 192 111 197
122 2 4 9 8 15 8 7 0 24 11 39 25 15 14 30 25 33 25 9 0 119 82 123 92 2 4 8
8 13 8 5 0 19 9 31 19 13 11 34 30 48 41 14 12 42 36 64 53 21 18 63 56 92 85
30 28 56 52 58 52 3 0 216 211 216 214 0 1 25 29 56 62 31 32 72 79 92 104 20
25 51 60 69 78 18 18 33 35 33 38 0 3 14 19 30 36 17 16 30 33 30 36 0 4 18
27 40 51 21 24 49 58 62 77 13 19 26 34 31 34 4 0 7 4 7 9 0 9 24 41 63 82 9
10 17 24 17 29 0 6 4 10 8 10 4 0 16 15 26 33 19 32 50 67 61 67 3 0 4 -249 2
-552 -3 -432 -8 -591 -21 -728 -10 -96 -21 -211 -25 -255 -12 -123 -31 -248
-42 -267 -5 -10 -9 -37 -9 -60 0 -24 -7 -52 -15 -62 -8 -11 -15 -35 -15 -53 0
-18 -4 -33 -10 -33 -5 0 -10 -9 -10 -19 0 -11 -7 -32 -15 -48 -8 -15 -20 -43
-27 -60 -7 -18 -17 -33 -23 -33 -6 0 -19 -11 -29 -25 -10 -14 -27 -25 -37 -25
-10 0 -21 -9 -24 -20 -8 -26 5 -179 16 -186 5 -3 9 -24 9 -47 1 -23 7 -53 15
-67 8 -14 14 -39 15 -57 0 -17 5 -35 10 -38 6 -3 10 -19 10 -35 0 -16 7 -35
15 -44 8 -8 15 -22 15 -30 0 -9 4 -24 9 -34 4 -9 16 -35 26 -57 9 -22 21 -48
26 -57 5 -10 9 -24 9 -32 0 -8 6 -19 13 -23 6 -4 25 -35 42 -68 16 -33 32 -62
35 -65 3 -3 14 -18 23 -33 35 -54 141 -167 158 -167 5 0 9 -4 9 -10 0 -5 5
-10 11 -10 6 0 25 -11 43 -25 18 -14 43 -25 54 -25 12 0 22 -4 22 -9 0 -18
116 -43 227 -48 104 -6 113 -5 119 13 3 10 10 28 15 39 22 46 40 225 58 575 6
107 15 276 21 375 5 99 12 610 15 1135 7 1233 13 1570 32 1570 7 0 13 -4 13
-9 0 -15 150 -161 164 -161 3 0 17 -11 32 -25 15 -14 33 -25 40 -25 8 0 14 -7
14 -15 0 -8 7 -15 15 -15 8 0 15 -4 15 -10 0 -5 6 -10 13 -10 7 0 24 -10 38
-22 27 -25 56 -44 79 -55 8 -4 17 -9 20 -12 7 -8 75 -46 130 -74 25 -12 47
-25 50 -28 3 -3 35 -14 71 -24 55 -14 70 -15 90 -5 50 26 59 45 59 119 0 38
-4 73 -10 76 -5 3 -10 22 -10 41 0 19 -4 34 -10 34 -5 0 -12 11 -16 25 -3 14
-10 25 -15 25 -5 0 -9 5 -9 10 0 13 -95 146 -129 181 -15 15 -37 41 -51 59
-28 36 -89 96 -134 131 -16 13 -41 34 -54 46 -14 13 -28 23 -33 23 -4 0 -14 6
-21 13 -21 19 -56 37 -73 37 -8 0 -15 4 -15 10 0 16 -106 55 -224 81 l-59 13
7 155 c4 86 11 160 16 166 4 5 10 33 13 60 8 86 29 200 38 209 5 6 9 18 9 28
0 10 7 18 15 18 8 0 15 4 15 9 0 4 33 23 73 41 39 18 90 41 111 51 22 11 47
19 56 19 9 0 20 4 25 9 6 5 53 23 105 40 52 18 104 36 115 40 11 5 36 15 55
21 53 19 102 40 133 56 16 8 35 14 42 14 7 0 15 3 17 8 2 4 30 20 63 37 33 16
62 32 65 35 10 10 101 70 106 70 13 0 84 81 84 96 0 9 -10 25 -22 36 -13 11
-34 29 -48 41 -14 12 -42 31 -63 42 -20 11 -37 23 -37 26 0 10 -76 21 -160 22
-74 1 -113 -6 -220 -38 -30 -9 -68 -19 -85 -22 -16 -3 -34 -9 -40 -13 -5 -4
-28 -11 -50 -15 -22 -4 -44 -10 -50 -15 -5 -4 -31 -11 -57 -15 -44 -7 -48 -6
-48 13 0 11 7 27 15 36 8 8 15 23 15 34 0 11 7 33 15 48 8 16 15 37 15 46 0 9
5 20 10 23 6 3 10 19 10 35 0 16 4 31 9 34 5 4 12 24 16 46 4 22 11 42 16 46
5 3 9 18 9 34 0 16 4 31 9 34 5 4 12 29 16 56 4 28 11 50 16 50 5 0 9 22 9 49
0 28 4 52 9 55 5 3 12 32 16 63 4 32 11 63 15 68 4 6 11 48 14 95 4 47 9 117
13 155 6 74 -13 289 -27 316 -5 9 -12 33 -15 53 -4 20 -11 39 -16 42 -5 3 -9
18 -9 35 0 16 -4 29 -10 29 -5 0 -12 11 -16 25 -3 14 -10 25 -15 25 -5 0 -9 7
-9 17 0 9 -11 31 -25 49 -14 18 -25 35 -25 39 0 8 -137 145 -145 145 -4 0 -21
11 -38 23 -68 50 -192 90 -317 101 -36 4 -83 8 -105 10 -22 2 -83 0 -135 -4z"/>
<path d="M7825 8600 c-104 -6 -211 -27 -315 -60 -14 -5 -52 -16 -85 -25 -33
-9 -68 -21 -77 -26 -10 -5 -23 -9 -29 -9 -6 0 -25 -6 -42 -13 -18 -8 -45 -18
-62 -24 -47 -16 -345 -133 -395 -155 -44 -19 -62 -27 -125 -53 -62 -25 -81
-34 -137 -59 -31 -14 -59 -26 -62 -26 -6 0 -66 -27 -203 -91 -46 -22 -89 -39
-98 -39 -8 0 -15 -4 -15 -10 0 -5 -5 -10 -11 -10 -9 0 -27 -7 -149 -62 -87
-39 -115 -53 -118 -60 -2 -5 -14 -8 -27 -8 -13 0 -25 -4 -27 -8 -1 -4 -33 -23
-70 -41 -99 -50 -98 -71 7 -107 54 -19 219 -27 247 -13 9 5 43 13 75 18 32 6
83 17 113 26 30 9 66 19 80 22 14 2 34 8 45 13 58 26 99 40 116 40 11 0 19 5
19 10 0 6 7 10 16 10 9 0 32 7 52 16 21 9 48 21 62 26 14 6 39 16 55 23 17 7
62 25 100 40 39 15 84 33 100 40 17 7 48 19 70 26 22 7 45 16 50 20 6 4 25 10
43 14 17 3 32 11 32 17 0 6 3 9 6 5 3 -3 29 2 58 12 28 10 69 23 91 30 22 7
56 18 75 26 19 7 62 18 95 25 33 7 71 16 85 22 28 11 98 24 210 38 41 6 93 13
115 18 83 15 108 -4 128 -98 21 -96 29 -127 37 -145 5 -11 11 -38 14 -60 2
-22 12 -78 21 -125 9 -47 20 -116 25 -155 5 -38 16 -124 25 -190 9 -66 20
-165 24 -221 4 -55 11 -107 16 -115 9 -13 16 -107 33 -434 5 -83 12 -157 17
-165 5 -7 12 -97 16 -199 5 -102 14 -314 21 -471 27 -628 5 -1477 -42 -1628
-12 -39 -16 -43 -39 -38 -14 3 -64 10 -110 16 -46 6 -87 12 -90 14 -3 2 -103
0 -221 -5 -232 -9 -286 -15 -535 -64 -16 -4 -50 -10 -75 -15 -25 -5 -72 -16
-105 -25 -33 -9 -89 -23 -125 -31 -36 -8 -81 -19 -100 -24 -69 -17 -176 -42
-215 -50 -22 -5 -69 -16 -105 -25 -36 -9 -87 -20 -115 -25 -27 -5 -77 -16
-110 -25 -33 -9 -69 -18 -80 -21 -17 -5 -22 2 -32 38 -27 96 -26 309 4 974 l5
122 162 11 c220 16 229 17 331 35 50 9 115 20 145 26 30 5 84 16 120 25 36 9
85 20 110 25 58 11 130 29 155 40 11 5 31 11 45 14 40 8 174 56 184 67 6 5 20
9 32 9 13 0 26 5 29 10 3 6 15 10 26 10 10 0 19 4 19 8 0 5 21 18 48 30 64 29
119 62 154 92 30 26 37 67 13 76 -8 4 -15 12 -15 20 0 8 -3 14 -7 14 -5 0 -21
12 -38 26 -88 76 -248 110 -395 84 -36 -6 -83 -14 -105 -17 -22 -3 -44 -9 -50
-13 -5 -5 -27 -11 -47 -15 -21 -4 -38 -11 -38 -16 0 -5 -8 -9 -19 -9 -10 0
-36 -7 -57 -15 -22 -9 -48 -19 -59 -24 -11 -4 -45 -20 -75 -34 -30 -15 -63
-27 -73 -27 -9 0 -17 -4 -17 -10 0 -5 -16 -12 -35 -16 -19 -3 -35 -10 -35 -15
0 -5 -7 -9 -16 -9 -9 0 -28 -6 -42 -14 -29 -15 -72 -32 -197 -78 -114 -42
-144 -50 -201 -55 l-52 -5 -5 174 c-5 160 -28 533 -42 673 -8 79 0 89 67 87
48 -1 230 21 383 48 56 9 145 29 225 50 19 5 55 14 80 20 25 5 54 14 65 19 11
4 47 16 80 26 91 27 149 47 160 57 5 4 15 8 23 8 11 0 49 15 152 63 14 7 53
29 88 49 34 21 67 38 72 38 16 0 12 38 -7 68 -74 116 -202 182 -357 182 -107
0 -354 -58 -391 -91 -5 -5 -16 -9 -26 -9 -9 0 -36 -10 -60 -23 -24 -13 -70
-31 -101 -42 -32 -11 -58 -23 -58 -27 0 -4 -9 -8 -20 -8 -11 0 -28 -4 -38 -10
-9 -5 -35 -17 -57 -26 -22 -9 -54 -23 -72 -30 -17 -8 -38 -14 -47 -14 -9 0
-16 -4 -16 -10 0 -5 -9 -10 -19 -10 -11 0 -32 -6 -48 -14 -15 -8 -44 -19 -63
-25 -31 -10 -37 -9 -52 10 -11 13 -18 38 -18 64 0 26 -6 47 -15 55 -8 7 -15
23 -15 36 0 12 -4 26 -10 29 -5 3 -10 15 -10 25 0 10 -6 25 -13 32 -7 7 -21
30 -30 51 -10 20 -22 37 -27 37 -6 0 -10 5 -10 10 0 12 -43 62 -89 104 -19 17
-42 38 -50 46 -16 14 -94 71 -136 98 -11 7 -28 15 -37 18 -10 4 -18 10 -18 14
0 4 -21 15 -47 25 -27 10 -52 22 -57 26 -29 26 -54 -13 -30 -46 8 -10 14 -29
14 -42 0 -13 5 -23 10 -23 6 0 10 -17 10 -37 1 -21 7 -49 15 -63 8 -14 14 -43
15 -65 0 -23 4 -45 9 -50 19 -19 41 -213 62 -531 17 -257 -6 -834 -46 -1154
-9 -69 -19 -172 -23 -230 -5 -58 -12 -112 -17 -120 -35 -57 -36 -915 0 -970 5
-8 12 -37 16 -65 4 -27 15 -75 24 -105 9 -30 19 -70 22 -87 3 -18 9 -33 13
-33 5 0 11 -13 15 -30 4 -16 11 -32 16 -35 5 -4 9 -13 9 -22 0 -9 11 -31 25
-49 14 -18 25 -38 25 -45 0 -6 11 -22 25 -35 14 -13 25 -26 25 -30 0 -17 157
-154 177 -154 5 0 14 -5 21 -12 14 -14 80 -38 105 -38 11 0 21 9 24 20 3 11 9
20 13 20 4 0 10 8 14 18 6 18 27 53 37 62 12 10 39 74 39 91 0 9 5 19 11 21 6
2 13 33 16 69 3 36 11 72 17 80 10 13 41 29 111 59 17 7 37 16 45 21 17 10 13
9 100 38 36 12 94 29 130 38 36 8 88 21 115 28 90 24 156 35 203 35 26 0 88 7
137 15 102 17 525 20 660 5 44 -5 132 -14 195 -19 124 -11 160 -18 160 -33 0
-13 -62 -68 -77 -68 -7 0 -13 -4 -13 -9 0 -5 -20 -12 -44 -15 -59 -9 -68 -21
-54 -76 6 -25 15 -49 19 -55 5 -5 9 -21 9 -36 0 -15 5 -31 10 -34 6 -3 10 -14
10 -23 0 -9 7 -30 15 -46 8 -15 15 -41 15 -56 0 -16 3 -30 8 -32 10 -4 42
-101 42 -126 0 -12 4 -23 9 -26 5 -3 12 -22 16 -42 3 -20 10 -44 15 -53 4 -9
16 -43 26 -76 10 -33 22 -64 26 -70 4 -5 8 -19 8 -31 0 -13 4 -25 9 -28 5 -3
12 -22 15 -41 4 -19 11 -35 16 -35 6 0 10 -6 10 -14 0 -8 6 -27 14 -43 8 -15
23 -45 33 -66 30 -65 37 -77 45 -77 5 0 8 -6 8 -13 0 -7 11 -24 25 -39 14 -15
25 -30 25 -33 0 -18 118 -115 167 -137 168 -75 288 -50 401 86 6 8 12 20 12
26 0 5 4 10 10 10 5 0 12 11 16 25 3 14 10 25 14 25 5 0 11 13 15 30 4 16 11
32 16 35 5 4 9 19 9 36 0 16 4 29 8 29 10 0 32 76 38 135 3 22 8 47 11 55 12
27 34 153 43 240 5 47 17 148 25 225 19 161 31 650 17 668 -5 7 -12 48 -16 92
-4 44 -11 84 -16 90 -4 5 -10 37 -13 70 -3 33 -13 96 -22 140 -9 44 -20 109
-25 145 -10 82 -27 222 -35 280 -7 54 -18 206 -34 465 -6 105 -15 255 -21 335
-6 80 -10 525 -11 995 0 500 -4 883 -10 930 -5 44 -14 130 -19 190 -11 136
-23 215 -35 235 -5 8 -12 32 -16 55 -14 75 -22 100 -36 113 -7 7 -13 22 -13
33 0 11 -4 27 -9 37 -5 9 -12 24 -15 32 -4 8 -15 29 -25 45 -11 17 -20 38 -20
48 -1 10 -8 20 -16 23 -8 4 -15 15 -15 25 0 10 -4 19 -10 19 -5 0 -10 5 -10
10 0 12 -4 17 -50 70 -16 19 -30 38 -30 42 0 5 -5 8 -10 8 -6 0 -23 11 -38 25
-15 14 -32 25 -39 25 -7 0 -13 3 -13 8 0 7 -32 25 -90 50 -14 6 -41 14 -60 18
-19 3 -40 10 -45 14 -13 11 -255 17 -380 10z"/>
</g>
</svg>
